<svg xmlns="http://www.w3.org/2000/svg" xml:space="preserve" viewBox="0 0 140.5732 90.807465"><g style="line-height:100%;-inkscape-font-specification:inter" word-spacing="0"><path stroke-width="3.0773" d="M96.726092 132.5852H65.171745l-5.529523 12.86215q-2.04352 4.74818-2.04352 7.09221 0 1.86321 1.743002 3.3057 1.803106 1.38238 7.69325 1.8031v2.22383H41.370752v-2.22383q5.108799-.90155 6.611387-2.34403 3.06528-2.88497 6.791698-11.72019l28.669377-67.075526h2.103624L113.9157 144.30538q3.4259 8.17408 6.19066 10.63832 2.82487 2.40414 7.81346 2.70466v2.22383H95.764435v-2.22383q4.868385-.24041 6.551285-1.62279 1.743-1.38238 1.743-3.3658 0-2.64455-2.40414-8.35439zm-1.682899-4.44766L81.219384 95.200808l-14.18443 32.936732Zm90.696217-51.628926v28.188546h-2.22383q-1.08187-8.113971-3.90673-12.922252-2.76476-4.808282-7.93367-7.633147-5.1689-2.824865-10.69842-2.824865-6.25077 0-10.33781 3.846625-4.08704 3.786521-4.08704 8.654906 0 3.726418 2.58445 6.791693 3.72642 4.50777 17.73054 12.02071 11.41967 6.13056 15.56681 9.43625 4.20725 3.24559 6.43108 7.69325 2.28393 4.44766 2.28393 9.31605 0 9.25594-7.21242 15.98753-7.15232 6.67149-18.45178 6.67149-3.54611 0-6.67149-.54093-1.86321-.30052-7.75335-2.16373-5.83004-1.92331-7.39274-1.92331-1.50258 0-2.40414.90155-.84145.90156-1.26217 3.72642h-2.22383v-27.94813h2.22383q1.56269 8.77511 4.20725 13.16267 2.64455 4.32745 8.05387 7.21242 5.46942 2.88497 11.9606 2.88497 7.51294 0 11.84039-3.96684 4.38756-3.96683 4.38756-9.37614 0-3.00518-1.6829-6.07046-1.6228-3.06528-5.1088-5.70983-2.34404-1.80311-12.80205-7.63315-10.45801-5.89014-14.90567-9.37615-4.38756-3.486-6.67149-7.69325-2.28394-4.20724-2.28394-9.25594 0-8.775114 6.7316-15.085983 6.73159-6.370973 17.1295-6.370973 6.49118 0 13.76371 3.185487 3.36579 1.502588 4.74817 1.502588 1.5627 0 2.52435-.901553 1.02176-.961656 1.6228-3.786522z" aria-label="AS" font-family="Times New Roman" font-size="123.092" letter-spacing="0" style="-inkscape-font-specification:&quot;Times New Roman, &quot;" transform="matrix(.938544 0 0 1.06548 -38.828266 -81.518421)"/></g></svg>